<?xml version="1.0" standalone="no"?>
<!DOCTYPE svg PUBLIC "-//W3C//DTD SVG 20010904//EN"
 "http://www.w3.org/TR/2001/REC-SVG-20010904/DTD/svg10.dtd">
<svg version="1.0" xmlns="http://www.w3.org/2000/svg"
 width="172.000000pt" height="172.000000pt" viewBox="0 0 172.000000 172.000000"
 preserveAspectRatio="xMidYMid meet">
<metadata>
Created by potrace 1.11, written by Peter Selinger 2001-2013
</metadata>
<g transform="translate(0.000000,172.000000) scale(0.100000,-0.100000)"
fill="#000000" stroke="none">
<path d="M790 1714 c-197 -30 -321 -79 -450 -179 -188 -146 -301 -350 -331
-598 -30 -241 82 -536 268 -706 182 -167 387 -241 636 -228 135 7 229 32 347
92 208 108 365 300 430 525 30 103 38 287 17 396 -68 358 -352 629 -720 689
-88 14 -143 17 -197 9z m261 -157 c-1 -12 -15 -9 -19 4 -3 6 1 10 8 8 6 -3 11
-8 11 -12z m-126 -17 c3 -5 1 -10 -4 -10 -6 0 -11 5 -11 10 0 6 2 10 4 10 3 0
8 -4 11 -10z m-210 -159 c95 -47 224 -149 308 -243 l60 -68 -24 -19 c-13 -11
-31 -20 -39 -21 -9 0 -20 -4 -26 -10 -6 -6 -15 -6 -24 0 -13 8 -13 10 1 10 8
0 33 8 54 19 l39 19 -69 72 c-135 141 -275 236 -379 260 -62 14 -113 -4 -144
-50 -22 -32 -24 -43 -19 -115 12 -192 176 -483 374 -663 72 -67 85 -92 44 -92
-24 0 -63 43 -177 195 -96 128 -106 136 -149 121 -11 -4 -6 1 12 11 l32 18
-31 50 c-81 130 -128 268 -128 379 0 174 100 219 285 127z m-68 -97 c-9 -9
-28 6 -21 18 4 6 10 6 17 -1 6 -6 8 -13 4 -17z m-57 -8 c0 -3 -4 -8 -10 -11
-5 -3 -10 -1 -10 4 0 6 5 11 10 11 6 0 10 -2 10 -4z m845 -85 c-51 -21 -125
-38 -125 -29 0 5 -10 7 -22 4 -13 -3 -5 3 17 14 26 12 60 19 95 19 38 0 49 -3
35 -8z m70 -1 c6 -10 -27 -26 -73 -35 -21 -4 -18 -1 11 11 20 9 37 21 37 25 0
12 17 11 25 -1z m-115 -50 c-8 -5 -19 -10 -25 -10 -5 0 -3 5 5 10 8 5 20 10
25 10 6 0 3 -5 -5 -10z m-175 -10 c-3 -5 -12 -10 -18 -10 -7 0 -6 4 3 10 19
12 23 12 15 0z m-380 -70 c3 -6 -4 -10 -17 -10 -13 0 -29 -5 -35 -11 -7 -7
-24 -8 -54 -1 l-44 10 40 0 c22 0 51 5 65 10 32 14 38 14 45 2z m-162 -7 c-7
-2 -21 -2 -30 0 -10 3 -4 5 12 5 17 0 24 -2 18 -5z m245 -23 c17 0 32 -3 32
-7 0 -5 -25 -6 -55 -5 -30 2 -55 8 -55 14 0 6 10 8 23 4 12 -3 37 -6 55 -6z
m219 -5 c0 -17 -1 -17 -40 -19 -16 -1 -31 2 -33 6 -3 4 5 8 18 8 13 0 30 5 38
10 8 5 15 10 16 10 0 0 1 -7 1 -15z m78 -144 c111 -183 156 -385 105 -469 -27
-43 -79 -66 -134 -56 -78 13 -81 21 -4 16 72 -4 78 -3 101 21 14 13 31 44 37
67 12 46 5 114 -11 105 -5 -4 -9 -2 -9 4 0 5 5 11 10 13 23 7 -56 209 -126
320 -13 21 -20 38 -15 38 5 0 26 -27 46 -59z m-465 9 c-8 -5 -19 -10 -25 -10
-5 0 -3 5 5 10 8 5 20 10 25 10 6 0 3 -5 -5 -10z m76 -5 c-11 -8 -25 -15 -30
-15 -6 1 0 7 14 15 32 19 40 18 16 0z m344 -13 c0 -8 -72 -33 -79 -27 -3 4 57
33 72 34 4 1 7 -2 7 -7z m-780 -59 l124 -27 -38 -17 c-21 -9 -41 -21 -45 -27
-4 -7 -36 -7 -94 -1 -71 7 -95 14 -123 35 -40 31 -42 37 -11 52 33 16 50 15
187 -15z m650 -63 c0 -5 -6 -10 -14 -10 -8 0 -23 -3 -33 -6 -10 -3 -7 2 7 10
30 18 40 20 40 6z m494 -171 c-3 -5 -10 -7 -15 -3 -5 3 -7 10 -3 15 3 5 10 7
15 3 5 -3 7 -10 3 -15z m-94 1 c0 -5 -5 -10 -11 -10 -5 0 -7 5 -4 10 3 6 8 10
11 10 2 0 4 -4 4 -10z m-875 -70 c3 -5 1 -10 -4 -10 -6 0 -11 5 -11 10 0 6 2
10 4 10 3 0 8 -4 11 -10z m-230 -40 c3 -5 1 -10 -4 -10 -6 0 -11 5 -11 10 0 6
2 10 4 10 3 0 8 -4 11 -10z m1125 -75 c0 -8 -4 -15 -9 -15 -13 0 -22 16 -14
24 11 11 23 6 23 -9z m-1100 -5 c0 -5 -4 -10 -10 -10 -5 0 -10 5 -10 10 0 6 5
10 10 10 6 0 10 -4 10 -10z m260 0 c0 -5 -5 -10 -11 -10 -5 0 -7 5 -4 10 3 6
8 10 11 10 2 0 4 -4 4 -10z m660 -150 c0 -5 -5 -10 -11 -10 -5 0 -7 5 -4 10 3
6 8 10 11 10 2 0 4 -4 4 -10z m-720 -20 c0 -5 -4 -10 -10 -10 -5 0 -10 5 -10
10 0 6 5 10 10 10 6 0 10 -4 10 -10z"/>
<path d="M301 797 c-8 -10 -7 -19 5 -33 14 -16 15 -17 10 -1 -3 10 0 17 8 17
8 0 16 -5 18 -11 5 -16 48 -1 48 17 0 11 -7 13 -26 8 -19 -5 -25 -4 -20 5 10
16 -29 14 -43 -2z"/>
</g>
</svg>
